# xmcd CD database file generated by Grip 3.3.1
# 
# Track frame offsets:
#       150
#       22742
#       35792
#       42852
#       72496
#       89729
#       118754
#       134458
#       150605
#       166188
#       178941
#       193574
#       202925
#       220856
#       243243
# 
# Disc length: 3453 seconds
# 
# Revision: 1
# Processed by: cddbd v1.5.2PL0 Copyright (c) Steve Scherf et al.
# Submitted via: Grip 3.3.1
# 
DISCID=d30d7b0f
DTITLE=Various Artist - Aangenaam Klassiek 2014 [CD1)
DYEAR=2014
DGENRE=Alternative
TTITLE0=Jan Ladislav Dusík - Piano Concerto in G, Op. 1, No. 3: II. Rond
TTITLE0=o: Allegro
TTITLE1=Georg Philipp Telemann - Concerto for recorder, oboe, violin and 
TTITLE1=basso continuo in G, TWV 43: G6: III. Allegro
TTITLE2=Alfred Schnittke - Drei geistliche Gesänge: II. Jesusgebet
TTITLE3=Wolfgang Amadeus Mozart - Sonate voor 2 Piano's in D, K. 448: III
TTITLE3=Allegro molto
TTITLE4=Phil Cunningham - Aberlady
TTITLE5=Richard Wagner - Die Walküre: Akte 1: Ein Schwert Verhieß mir d
TTITLE5=er Vater
TTITLE6=Dimitri Shostakovich - Seven Dolls' Dances: I. Lyrical Waltz
TTITLE7=Alexander von Zemlinsky, Reinbert de Leeuw (arr) - Six Songs afte
TTITLE7=r Poems by Maeterlinck, Op. 13: I. Die drei Schwestern
TTITLE8=Gustav Mahler, Klaus Simon (arr) - Symphony 9 in D: ending 3rd mo
TTITLE8=vement (fragment)
TTITLE9=Johann Sebastian Bach - Keyboard Concerto 5 in f, BWV 1056: II. L
TTITLE9=argo
TTITLE10=Claudio Monteverdi - Magnificat (fragment)
TTITLE11=Federico Mompou - Música Callada: Book 1: I. Angelico
TTITLE12=Astor Piazzolla - Libertango
TTITLE13=Gioachino Rossini - Il Signor Bruschino
TTITLE14=Franz Lehár - Paganini: Girls Were Made to Love and Kiss
EXTD=
EXTT0=
EXTT1=
EXTT2=
EXTT3=
EXTT4=
EXTT5=
EXTT6=
EXTT7=
EXTT8=
EXTT9=
EXTT10=
EXTT11=
EXTT12=
EXTT13=
EXTT14=
PLAYORDER=
